<?xml version="1.0" standalone="no"?>
<!DOCTYPE svg PUBLIC "-//W3C//DTD SVG 20010904//EN"
 "http://www.w3.org/TR/2001/REC-SVG-20010904/DTD/svg10.dtd">
<svg version="1.0" xmlns="http://www.w3.org/2000/svg"
 width="460.000000pt" height="460.000000pt" viewBox="0 0 460.000000 460.000000"
 preserveAspectRatio="xMidYMid meet">
<metadata>
Created by potrace 1.11, written by Peter Selinger 2001-2013
</metadata>
<g transform="translate(0.000000,460.000000) scale(0.100000,-0.100000)"
fill="#000000" stroke="none">
<path d="M2261 4514 c-18 -23 -21 -41 -21 -119 l0 -92 -127 -12 c-70 -7 -135
-17 -145 -22 -44 -24 -47 -86 -5 -113 18 -12 36 -13 92 -6 39 5 96 11 128 13
l57 4 0 -48 c0 -56 3 -54 -123 -63 -410 -29 -865 -263 -1148 -589 -395 -456
-533 -1059 -374 -1642 18 -66 80 -240 85 -240 0 0 728 1 1617 2 l1618 2 33 87
c124 325 147 720 62 1053 -71 280 -215 548 -409 762 -288 317 -728 537 -1130
566 l-91 6 0 50 0 50 91 -6 c361 -26 762 -199 1056 -456 285 -249 504 -617
589 -986 61 -270 58 -592 -10 -870 -121 -495 -470 -946 -918 -1186 -103 -55
-117 -72 -104 -124 4 -15 18 -30 33 -36 33 -12 65 1 196 78 482 285 831 776
942 1328 44 219 50 488 15 710 -51 328 -206 674 -417 935 -79 98 -268 281
-363 351 -300 224 -648 356 -1042 394 l-68 7 0 92 c0 79 -3 97 -21 120 -13 17
-30 26 -49 26 -19 0 -36 -9 -49 -26z m204 -1894 c98 -300 197 -605 221 -677
l42 -133 -71 0 -72 0 -55 183 -55 182 -197 3 -196 2 -22 -72 c-12 -40 -37
-124 -56 -185 l-35 -113 -69 0 c-39 0 -70 2 -70 5 0 3 99 309 220 680 121 371
220 678 220 682 0 33 41 -85 195 -557z m-1193 249 c76 -16 124 -44 158 -91 58
-80 76 -210 44 -317 -15 -52 -72 -122 -137 -167 l-28 -19 131 -214 c72 -118
135 -222 141 -233 9 -17 5 -18 -59 -18 l-69 0 -128 220 -128 220 -78 0 -79 0
0 -220 0 -220 -55 0 -55 0 0 535 0 535 145 0 c79 0 168 -5 197 -11z m2250 -18
c137 -53 198 -209 198 -510 0 -294 -56 -441 -192 -502 -48 -21 -70 -24 -235
-27 l-183 -4 0 537 0 537 178 -4 c152 -4 185 -8 234 -27z"/>
<path d="M2267 2773 c-10 -17 -148 -465 -144 -469 2 -3 74 -3 160 -2 l155 3
-72 227 c-67 214 -87 261 -99 241z"/>
<path d="M1040 2564 l0 -216 103 4 c91 3 108 6 140 28 21 14 50 43 64 65 24
34 28 52 31 125 2 74 0 90 -20 124 -38 65 -91 86 -215 86 l-103 0 0 -216z"/>
<path d="M3222 2343 l3 -438 87 -3 c117 -4 163 10 214 62 68 71 79 123 79 376
0 249 -11 303 -72 371 -56 62 -77 69 -203 69 l-110 0 2 -437z"/>
<path d="M1340 4058 c-274 -164 -438 -300 -593 -493 -237 -294 -381 -623 -431
-984 -21 -146 -21 -416 0 -562 72 -522 355 -1000 775 -1314 319 -238 645 -363
1040 -397 l138 -12 -69 -72 c-39 -40 -70 -80 -70 -91 0 -29 37 -63 68 -63 21
0 55 28 159 132 163 163 163 162 66 260 l-66 67 34 5 c19 3 66 8 104 11 164
14 390 78 563 160 176 84 377 229 512 372 l75 78 -672 3 c-369 1 -977 1 -1350
0 l-678 -3 100 -100 c280 -281 648 -463 1027 -507 l97 -12 53 -53 52 -53 -51
0 c-164 0 -441 60 -626 136 -261 106 -453 238 -657 451 -123 128 -213 251
-292 400 -151 285 -220 560 -220 883 0 319 65 584 213 870 82 158 173 283 309
424 129 132 274 247 417 327 104 59 122 82 101 127 -17 36 -77 40 -128 10z"/>
<path d="M1005 1477 c-3 -7 -4 -62 -3 -123 3 -109 3 -109 28 -109 23 0 25 4
28 53 3 48 5 53 25 50 18 -2 23 -11 25 -45 3 -44 22 -69 47 -59 19 7 19 53 -1
91 -14 27 -13 32 3 62 17 32 17 33 -3 60 -18 25 -29 28 -83 31 -45 2 -63 -1
-66 -11z m105 -57 c0 -25 -4 -30 -25 -30 -21 0 -25 5 -25 30 0 25 4 30 25 30
21 0 25 -5 25 -30z"/>
<path d="M1475 1477 c-3 -7 -4 -62 -3 -123 l3 -109 70 0 c63 0 70 2 70 20 0
16 -8 21 -42 23 -40 3 -43 5 -43 32 0 26 4 29 38 32 25 2 37 8 37 18 0 10 -12
16 -37 18 -34 3 -38 6 -38 32 0 27 3 29 43 32 29 2 42 8 42 18 0 21 -133 28
-140 7z"/>
<path d="M1924 1477 c-2 -7 -3 -62 -2 -123 3 -101 4 -109 23 -109 18 0 21 8
25 75 l5 75 14 -62 c26 -119 57 -121 82 -6 l14 68 5 -75 c4 -67 7 -75 25 -75
19 0 20 7 20 120 l0 120 -35 0 -35 0 -14 -67 c-8 -38 -17 -68 -21 -68 -4 0
-11 21 -15 47 -11 77 -21 93 -55 93 -17 0 -33 -6 -36 -13z"/>
<path d="M2455 1477 c-3 -7 -4 -62 -3 -123 l3 -109 64 -3 c35 -2 69 2 74 7 17
17 -12 41 -49 41 -31 0 -34 3 -34 29 0 27 3 30 38 33 25 2 37 8 37 18 0 10
-12 16 -37 18 -34 3 -38 6 -38 32 0 26 4 29 38 32 25 2 37 8 37 18 0 21 -123
28 -130 7z"/>
<path d="M2904 1477 c-2 -7 -3 -62 -2 -123 l3 -109 48 -3 c41 -3 51 1 77 27
28 27 30 35 30 99 0 96 -20 122 -96 122 -36 0 -56 -5 -60 -13z m104 -100 c3
-73 -7 -97 -39 -97 -17 0 -19 9 -19 86 l0 85 28 -3 c26 -3 27 -5 30 -71z"/>
<path d="M3348 1484 c-4 -3 5 -31 20 -62 14 -31 28 -84 31 -117 5 -51 9 -60
26 -60 17 0 21 9 26 60 4 33 18 86 33 118 21 48 23 59 11 63 -21 8 -35 -4 -52
-45 l-16 -36 -18 43 c-17 39 -43 55 -61 36z"/>
</g>
</svg>
